<?xml version="1.0" encoding="utf-8"?>
<svg id="master-artboard" viewBox="0 0 1200 1200" version="1.1" xmlns="http://www.w3.org/2000/svg" x="0px" y="0px" style="enable-background:new 0 0 1400 980;" width="1200px" height="1200px"><g transform="matrix(1, 0, 0, 1, 0, 0)"><rect id="ee-background" x="0" y="0" width="1200" height="1200" style="fill: white; fill-opacity: 0; pointer-events: none;"/><g transform="matrix(11.989999771118164, 0, 0, 11.989999771118164, -7217.3818359375, -550.68359375)"><g id="g-1" transform="matrix(1, 0, 0, 1, 0, 0)">
	<g id="g-2">
		<path class="st0" d="M652,46c27.6,0,50,22.4,50,50s-22.4,50-50,50s-50-22.4-50-50S624.4,46,652,46z" style="fill: rgb(43, 49, 76);"/>
	</g>
</g></g></g><g transform="matrix(0.6662722803130303, 0, 0, 0.6664836406707764, -0.23705202037741305, 0)"><g transform="matrix(1.5306122303009033, 0, 0, 1.5306122303009035, 301.67850032836003, 300.28500366210943)"><rect id="rect-1" x="0" y="0" width="784" height="784" style="fill: white; fill-opacity: 0; pointer-events: none;"/><g transform="matrix(39.22320811537888, 0, 0, 39.21076583862305, 219.06284124825095, 98.85484313964844)"><title>cut#3_round [#822]</title><desc>Created with Sketch.</desc><g stroke="none" stroke-width="1" fill="none" fill-rule="evenodd"><g transform="matrix(1, 0, 0, 1, -385.5968603012414, -4521.515625)" fill="#000000"><g transform="translate(56.000000, 160.000000)"><path d="M339,4379 L339,4379 C339.552,4379 340,4378.552 340,4378 L340,4377 C340,4376.448 339.552,4376 339,4376 C338.448,4376 338,4376.448 338,4377 L338,4378 C338,4378.552 338.448,4379 339,4379 L339,4379 Z M340,4373 L338,4373 L331,4373 C330.448,4373 330,4372.552 330,4372 L330,4367 C330,4366.448 329.552,4366 329,4366 C328.448,4366 328,4366.448 328,4367 L328,4373 C328,4374.105 328.895,4375 330,4375 L338,4375 L340,4375 L343,4375 C343.552,4375 344,4374.552 344,4374 C344,4373.448 343.552,4373 343,4373 L340,4373 Z M330,4365 L337,4365 C337.552,4365 338,4365.448 338,4366 L338,4371 C338,4371.552 338.448,4372 339,4372 C339.552,4372 340,4371.552 340,4371 L340,4365 C340,4363.895 339.105,4363 338,4363 L330,4363 L328,4363 L325,4363 C324.448,4363 324,4363.448 324,4364 C324,4364.552 324.448,4365 325,4365 L328,4365 L330,4365 Z M330,4360 L330,4361 C330,4361.552 329.552,4362 329,4362 C328.448,4362 328,4361.552 328,4361 L328,4360 C328,4359.448 328.448,4359 329,4359 C329.552,4359 330,4359.448 330,4360 L330,4360 Z" style="fill: rgb(255, 138, 136);"/></g></g></g></g></g></g></svg>